M48
; DRILL file KiCad 10.0.5 date 2026-09-29T20:12:18
; FORMAT={-:-/ absolute / metric / decimal}
; #@! TF.CreationDate,2026-09-29T20:12:18+05:30
; #@! TF.GenerationSoftware,Kicad,Pcbnew,10.0.5
; #@! TF.FileFunction,NonPlated,1,2,NPTH
FMAT,2
METRIC
; #@! TA.AperFunction,NonPlated,NPTH,ComponentDrill
T1C1.700
; #@! TA.AperFunction,NonPlated,NPTH,ComponentDrill
T2C3.000
; #@! TA.AperFunction,NonPlated,NPTH,ComponentDrill
T3C4.000
%
G90
G05
T1
X104.42Y-70.045
X104.42Y-89.04
X114.58Y-70.045
X114.58Y-89.04
X123.34Y-89.0
X123.42Y-70.045
X133.5Y-89.0
X133.58Y-70.045
X142.34Y-70.0
X142.34Y-89.0
X152.5Y-70.0
X152.5Y-89.0
T2
X80.0Y-103.5
X165.0Y-41.5
T3
X109.5Y-70.045
X109.5Y-89.04
X128.42Y-89.0
X128.5Y-70.045
X147.42Y-70.0
X147.42Y-89.0
M30
