M48
; DRILL file KiCad 10.0.5 date 2026-09-29T20:12:18
; FORMAT={-:-/ absolute / metric / decimal}
; #@! TF.CreationDate,2026-09-29T20:12:18+05:30
; #@! TF.GenerationSoftware,Kicad,Pcbnew,10.0.5
; #@! TF.FileFunction,Plated,1,2,PTH
FMAT,2
METRIC
; #@! TA.AperFunction,Plated,PTH,ViaDrill
T1C0.300
; #@! TA.AperFunction,Plated,PTH,ComponentDrill
T2C0.800
; #@! TA.AperFunction,Plated,PTH,ComponentDrill
T3C1.000
; #@! TA.AperFunction,Plated,PTH,ComponentDrill
T4C1.500
%
G90
G05
T1
X131.0Y-99.5
X158.05Y-56.05
T2
X87.5Y-82.0
X87.5Y-84.5
X87.5Y-87.0
X87.5Y-89.5
X87.5Y-92.0
X87.5Y-94.5
X87.5Y-97.0
X95.12Y-82.0
X95.12Y-84.5
X95.12Y-87.0
X95.12Y-89.5
X95.12Y-92.0
X95.12Y-94.5
X95.12Y-97.0
T3
X82.764Y-42.092
X82.764Y-44.632
X82.764Y-47.172
X82.764Y-49.712
X82.764Y-52.252
X82.764Y-54.792
X82.764Y-57.332
X83.75Y-65.0
X83.75Y-67.5
X83.75Y-70.0
X98.014Y-42.092
X98.014Y-44.632
X98.014Y-47.172
X98.014Y-49.712
X98.014Y-52.252
X98.014Y-54.792
X98.014Y-57.332
X98.25Y-65.0
X98.25Y-70.0
X113.5Y-43.19
X113.5Y-45.73
X113.5Y-48.27
X113.5Y-50.81
T4
X105.69Y-67.505
X105.69Y-86.5
X112.04Y-64.965
X112.04Y-83.96
X124.61Y-86.46
X124.69Y-67.505
X130.96Y-83.92
X131.04Y-64.965
X143.61Y-67.46
X143.61Y-86.46
X149.96Y-64.92
X149.96Y-83.92
T4
G00X90.6Y-61.9
M15
G01X91.9Y-61.9
M16
G05
G00X90.6Y-73.1
M15
G01X91.9Y-73.1
M16
G05
M30
